<svg id="_1" data-name="1" xmlns="http://www.w3.org/2000/svg" viewBox="0 0 479.11 265.32"><defs><style>.cls-1{fill:#c2deff;}.cls-2{fill:#ffba1f;}.cls-3{fill:#97cdff;}.cls-4{fill:#fff;}.cls-5{fill:#feb91e;}.cls-6{fill:#f72f2f;}.cls-7{fill:#080877;}.cls-8{fill:#fdb5b9;}.cls-9{fill:#fd727c;}.cls-10{fill:#0c0346;}.cls-11{fill:#2c119c;}.cls-12{fill:#5942e2;}.cls-13{fill:#5898fc;}.cls-14{fill:#e7f2ff;}.cls-15{fill:#cea051;}.cls-16{fill:#3a3aed;}.cls-17{fill:#3482f4;}.cls-18{fill:#fb9797;}</style></defs><rect class="cls-1" x="287.7" y="33.09" width="34.35" height="228.49"/><rect class="cls-2" x="253.81" y="7.12" width="34.35" height="254.46"/><rect class="cls-3" x="321.57" y="9.82" width="31.73" height="251.76"/><path class="cls-4" d="M346.65,110.28h-19.2a1.85,1.85,0,0,1-1.85-1.85V18a1.85,1.85,0,0,1,1.85-1.85h19.2A1.85,1.85,0,0,1,348.5,18v90.48A1.85,1.85,0,0,1,346.65,110.28Zm-19.2-93.44A1.11,1.11,0,0,0,326.34,18v90.48a1.11,1.11,0,0,0,1.11,1.11h19.2a1.11,1.11,0,0,0,1.11-1.11V18a1.11,1.11,0,0,0-1.11-1.11Z"/><path class="cls-4" d="M282.76,60H259.49a1.85,1.85,0,0,1-1.85-1.85v-45a1.85,1.85,0,0,1,1.85-1.85h23.27a1.84,1.84,0,0,1,1.84,1.85v45A1.84,1.84,0,0,1,282.76,60ZM259.49,12a1.11,1.11,0,0,0-1.11,1.11v45a1.11,1.11,0,0,0,1.11,1.11h23.27a1.11,1.11,0,0,0,1.1-1.11v-45a1.11,1.11,0,0,0-1.1-1.11Z"/><rect class="cls-3" x="294.34" y="83.32" width="21.05" height="168.76"/><rect class="cls-3" x="294.34" y="61.28" width="21.05" height="8.64"/><rect class="cls-3" x="294.34" y="42.82" width="21.05" height="8.64"/><path class="cls-5" d="M248,227.53H5.67a5.59,5.59,0,0,1,1.56,3.88V257.7a5.61,5.61,0,0,1-1.56,3.89H248a5.68,5.68,0,0,0,5.66-5.66V233.18A5.67,5.67,0,0,0,248,227.53Z"/><path class="cls-6" d="M182.08,121.69c-3.39-9.12-7.35-13-10.39-13.93a19.58,19.58,0,0,0-6.18-.08c-.43.3-.87.58-1.31.83a10.85,10.85,0,0,1-5.79,1.73,11.45,11.45,0,0,1-3.58-.84,7.21,7.21,0,0,1-1.88-1.17c-4.52.38-7.72,1.39-10.59,4s-7.63,11.16-8.83,14.7-4.1,8.83-5.87,9.68-3.64,1.39-5,.49c0,0,.43,12.73-1.69,17.39a18.55,18.55,0,0,0,14.28-3.18L131.41,168s3.6,3,15,3.89,17.25-1.06,17.25-1.06l8.83-25.59,2.62,5.37a48.4,48.4,0,0,0,8.9-2.9c4.67-2,5.3-4.24,5.3-4.24S185.48,130.8,182.08,121.69Z"/><path class="cls-7" d="M131.41,168s-20.34-24.47-24.24-28.18-6.65-8.11-11.81-6.82S65.54,159.5,61.23,163.67s-21.17,22.54-21.17,22.54l33.13-6.61S94.3,161.41,95.5,161.05s10.18,12.06,10.18,12.06Z"/><path class="cls-8" d="M122.71,137.09c-1.34-.49-5.3-4.8-8.48-8.48s-14.74-15.4-14.74-15.4l-5.66,4.28s9.24,19.32,19.23,30.44a31.12,31.12,0,0,0,8,6.55C123.14,149.82,122.71,137.09,122.71,137.09Z"/><path class="cls-8" d="M207.1,190c-2.47-1.06-4.73-.78-5.37.49,0,0-4.95-20.63-7-28.62s-5.44-18.38-5.44-18.38-.63,2.2-5.3,4.24a48.4,48.4,0,0,1-8.9,2.9c.77,2,18.16,43.61,18.16,43.61h18.59S209.58,191,207.1,190Z"/><path class="cls-9" d="M158.41,110.24a11.45,11.45,0,0,1-3.58-.84c1,3.66,2.66,3.73,4.28,3.8s4.3-1.68,5.09-4.69A10.85,10.85,0,0,1,158.41,110.24Z"/><path class="cls-8" d="M176.36,96.38c-.68-.9-2-.7-2.91-.45-1.56,1.39-1.19,0-1.19,0,.49-2.49-1.06-6.61-4-8.73s-7.49-2-10.88-2.55a5.58,5.58,0,0,1-3-1.28c-1.37,2.38-5.61,13.2-4.48,18.95a9.92,9.92,0,0,0,3,5.91,7.21,7.21,0,0,0,1.88,1.17,11.45,11.45,0,0,0,3.58.84,10.85,10.85,0,0,0,5.79-1.73c.44-.25.88-.53,1.31-.83,2.7-1.84,5.12-4.46,6-7.13a1.72,1.72,0,0,0,2.55.85C175.72,100.34,177.42,97.8,176.36,96.38Z"/><path class="cls-10" d="M175.09,85.57a11.6,11.6,0,0,0-8.7-8.76c-4.73-1.35-10.46-.78-12.22,2.12-1.1,1.8-.89,3.38.24,4.44a5.58,5.58,0,0,0,3,1.28c3.39.5,8,.43,10.88,2.55s4.45,6.24,4,8.73c0,0-.37,1.39,1.19,0S176.36,90.16,175.09,85.57Z"/><path class="cls-11" d="M146.39,171.87c-11.38-.92-15-3.89-15-3.89L38.26,186.57,45,196.39s65.24-.35,79.3-.64,28.55-3.32,32-6.21,7-16.19,7.35-18.73C163.64,170.81,157.77,172.79,146.39,171.87Z"/><polygon class="cls-10" points="38.26 186.57 26.45 179.36 35.78 196.81 44.97 196.39 38.26 186.57"/><path class="cls-10" d="M31.12,188.09S17.55,191.94,17.76,192s17.53,3.88,17.53,3.88Z"/><path class="cls-2" d="M92.76,55.53H76a5.67,5.67,0,0,0-5.65,5.66V74.47A5.67,5.67,0,0,0,76,80.13H92.76A5.43,5.43,0,0,0,94.05,80c1.16,1.91,6.9,6.36,6.9,6.36L98.42,61.19A5.68,5.68,0,0,0,92.76,55.53Z"/><path class="cls-10" d="M156.85,89.74a.29.29,0,0,1-.25-.15c-.65-1.17-3.25-2.41-3.28-2.42a.28.28,0,1,1,.25-.51c.11,0,2.79,1.32,3.53,2.66a.28.28,0,0,1-.11.38A.23.23,0,0,1,156.85,89.74Z"/><path class="cls-10" d="M166.39,92.92a.28.28,0,0,1-.19-.07,8.07,8.07,0,0,0-4.9-1.63A.28.28,0,0,1,161,91a.3.3,0,0,1,.19-.36,8.5,8.5,0,0,1,5.44,1.76.28.28,0,0,1,0,.4A.27.27,0,0,1,166.39,92.92Z"/><path class="cls-10" d="M172.19,99.28a.29.29,0,0,1-.21-.09.28.28,0,0,1,0-.4,10.91,10.91,0,0,1,2.11-1.53.28.28,0,0,1,.25.51,10.34,10.34,0,0,0-2,1.44A.26.26,0,0,1,172.19,99.28Z"/><path class="cls-10" d="M152.75,99.28a.28.28,0,0,1-.22-.11.27.27,0,0,1,0-.3c1.38-2.72,4-7.9,4.09-8.06a.3.3,0,0,1,.38-.14.29.29,0,0,1,.14.37c-.06.14-2.87,5.66-3.83,7.54l2.52-.6a.28.28,0,0,1,.34.21.29.29,0,0,1-.21.34l-3.11.74Z"/><path class="cls-10" d="M156.61,104.61a4.62,4.62,0,0,1-3.37-1.18.28.28,0,1,1,.41-.38c.06.06,1.52,1.56,4.76.76a.29.29,0,0,1,.34.21.27.27,0,0,1-.21.34A7.92,7.92,0,0,1,156.61,104.61Z"/><path class="cls-10" d="M134.74,154h-.06a.27.27,0,0,1-.21-.34c.41-1.78.82-4,1.24-6.46.55-3.08,1.11-6.26,1.79-8.91a.27.27,0,0,1,.34-.21.28.28,0,0,1,.2.34c-.67,2.64-1.23,5.81-1.77,8.88-.43,2.41-.83,4.69-1.25,6.49A.29.29,0,0,1,134.74,154Z"/><path class="cls-10" d="M175.6,152.15a.27.27,0,0,1-.25-.16c0-.07-3.16-6.7-4.91-10.76A.28.28,0,0,1,171,141c1.75,4.05,4.87,10.67,4.9,10.74a.28.28,0,0,1-.14.37Z"/><path class="cls-10" d="M161.41,94.78c-.21.62-.62,1-.92.94s-.36-.69-.14-1.31.62-1,.92-.93S161.63,94.17,161.41,94.78Z"/><path class="cls-10" d="M153.75,92c-.22.62-.63,1-.93.93s-.36-.68-.14-1.3.62-1,.92-.94S154,91.35,153.75,92Z"/><path class="cls-10" d="M93.83,61.42H74.14a.28.28,0,1,1,0-.56H93.83a.28.28,0,0,1,0,.56Z"/><path class="cls-10" d="M93.83,66.32H74.14a.28.28,0,1,1,0-.56H93.83a.28.28,0,1,1,0,.56Z"/><path class="cls-10" d="M93.83,71.22H74.14a.29.29,0,1,1,0-.57H93.83a.29.29,0,0,1,0,.57Z"/><polygon class="cls-12" points="92.37 97.11 85.04 102.81 93.31 118.36 100 113.21 92.37 97.11"/><polygon class="cls-13" points="86.03 103.24 92.11 98.5 98.69 112.5 93.45 117.16 86.03 103.24"/><path class="cls-8" d="M100,108.17c-1.86-1-2.85,5.16-2.26,6.39s1.51.25,2.33-1.34S101.32,108.87,100,108.17Z"/><path class="cls-8" d="M92.41,110.07c-.08-1.43-6.58-3-6.88-1.63s1.75,1.74,1.75,1.74-1.18-.25-.88.78,1.87,1.58,1.87,1.58-1.07,0-.88.77,2,1.35,3.85,1.94,3.29,0,3.08-.45-2.14-1.41-2.14-1.41,1-.22,1-1.14S91,110.64,91,110.64,92.45,110.85,92.41,110.07Z"/><path class="cls-13" d="M15.71,195.89,238.2,194.2s13.29,15,0,33.08H17.76L20,225h110a24.61,24.61,0,0,0,0-26.86H17.76Z"/><path class="cls-14" d="M17.76,198.16,20,225h110s9.41-10.75,0-26.86Z"/><path class="cls-1" d="M107.87,259.32V229.79H248a3.4,3.4,0,0,1,3.4,3.39v22.75a3.4,3.4,0,0,1-3.4,3.39Z"/><path class="cls-14" d="M9.32,259.32a7.88,7.88,0,0,0,.17-1.62V231.41a8,8,0,0,0-.17-1.62h94c0,.1,4.54.21,4.54.31v29.22Z"/><path class="cls-14" d="M236.54,225.3H134.74a.29.29,0,0,1-.24-.43c4.69-7.73,4.44-14.54,3.41-18.89a21.75,21.75,0,0,0-3.39-7.65.27.27,0,0,1,0-.3.28.28,0,0,1,.25-.15h101.8a.27.27,0,0,1,.21.09c3.66,4.17,4.82,10.2,3.36,17.44a41.34,41.34,0,0,1-3.32,9.74A.28.28,0,0,1,236.54,225.3Zm-101.3-.57H236.37c.83-1.69,8-17,0-26.29H135.29C136.82,200.74,143,211.47,135.24,224.73Z"/><path class="cls-7" d="M356.47,65c2.24-6.72,6.91-10.42,10.9-11.49a96.36,96.36,0,0,1,16.28-1.92c.06,2.64,2.15,5.31,4.42,6.59s6,1.76,6.42,1.24c.27-.36-.17-4-.79-7.31a107.75,107.75,0,0,1,17,3.54,20.66,20.66,0,0,1,9.7,7.55L413,90.78a1.15,1.15,0,0,0,1.14,1.55h2.56l5.67,27.16s-1.48.14-3.89.34c-4.79.42-13.26,1.08-21.22,1.41a192.54,192.54,0,0,1-30.34-1.76c-1.8-.31-2.9-.61-3-.87-.14-.84.87-3.36,1.45-4.73a12.2,12.2,0,0,0,2.06.54c8.17,1.37,27.83-6.91,37.76-12.35,0,0,6.47-.49,7.76-1.46s-4.55-.59-4.55-.59,4.86-1.17,5.84-2.43-4.77-.78-4.77-.78,5.74-1.07,5.74-2.14-6.42.68-9.73,0-4-1.56-3.5-3.5,1-5.07-.1-4.68-3,4.29-3.12,6.23-6.52,3.8-12.06,4.67-11.68,1.07-14.89-2.92a25.88,25.88,0,0,0-9.74.59,19,19,0,0,0-7.78,5C350.53,89.41,354.23,71.7,356.47,65Z"/><path class="cls-8" d="M383.65,51.58c.06,2.64,2.16,5.31,4.41,6.59,2.41,1.37,6,1.76,6.43,1.23a13,13,0,0,0-.23-3.88c-.15-1.08-.35-2.27-.56-3.42-.18-1-.37-1.88-.57-2.7l-.32-.18c-2.86-1.67-5.33-7.42-5.32-10.86-.62,1.42-1.39,3.57-2.07,5.72a39.65,39.65,0,0,0-1.76,7A2.44,2.44,0,0,0,383.65,51.58Z"/><path class="cls-8" d="M386.06,30.08a2.51,2.51,0,0,1,2.33,1.49A11.35,11.35,0,0,0,390,26.71c.33-3,2.4-8.31,8.05-6.75s10.5,5.83,10.77,7.4c.74,4.4.13,13.88-3.77,19.07-3.76,5-8.78,4.64-11.93,3l-.33-.18c-2.85-1.67-5.32-7.42-5.31-10.86a4.93,4.93,0,0,1,.06-.88s-1.62,1.55-3.7-.52S384.43,30.21,386.06,30.08Z"/><path class="cls-8" d="M420.6,94.86c2.53,2.83,9.74,9.31,19.56,8.92s15.9-8.92,15.9-8.92Z"/><path class="cls-10" d="M387.08,30.25c.08-.88-.44-4.65-.31-7.56s2.79-7.45,6-7.86,6,.07,9.6,0,8.24,1.2,10.9,4.85-1,7.61-4.41,7.68-5.91-1.56-8.11-3.31-4.74-2-5.13-.59-.84,3-2.07,2.92-1.89-2.4-2.34-2-.78,3.57-1.49,5.45-1.11,2.08-1.3,1.75A11.58,11.58,0,0,0,387.08,30.25Z"/><path class="cls-11" d="M428.49,265.32l-15-14.16,2.57-6.64h0a53.64,53.64,0,0,0,9.6,6.46C426.22,254.17,428.49,265.32,428.49,265.32Z"/><path class="cls-11" d="M396.71,253.52l1.22,7.66-21.31,1.27,11.9-9.56A23.84,23.84,0,0,0,396.71,253.52Z"/><path class="cls-12" d="M366.79,165c1.55,9.63,6.61,39,7.88,45.06s8.57,40.39,8.57,40.39a17.23,17.23,0,0,0,5.28,2.41,23.57,23.57,0,0,0,8.19.63,22,22,0,0,0,3.75-.61s-1.56-46.62-2.14-57.52-2.83-51.87-2.83-52.84,1.27,0,1.66.39,25.59,42.53,25.59,42.53S420,202.69,419.14,208s-4.37,35.13-4.37,35.13a10.45,10.45,0,0,0,1.31,1.45,54.19,54.19,0,0,0,9.6,6.47,61.37,61.37,0,0,0,6.31,3.17c.39,0,4-11.78,8-25.4s8.37-37.56,8.56-42.13-3.3-14.41-7.1-21.51c-2.67-5-11.84-23.14-17.83-35-.16-.34-.33-.67-.49-1-2.28-4.54-4-8-4.64-9.27l-5.78.46c-.28,0-.57,0-.86.06-4.36.33-9.57.67-14.58.88-1.37.05-2.86.07-4.42.07H392c-5.66,0-12.17-.42-17.49-.91l-.79-.07c-2.74-.27-5.12-.56-6.85-.85a54.28,54.28,0,0,0-1.78,10c-.06.67-.1,1.47-.13,2.36,0,.31,0,.62,0,.94C364.75,141.21,365.43,156.68,366.79,165Z"/><path class="cls-15" d="M401.43,94.86h60.26a1.89,1.89,0,0,0,1.71-1.34,1,1,0,0,0-1-1.34H402.15a1.88,1.88,0,0,0-1.7,1.34A1,1,0,0,0,401.43,94.86Z"/><path class="cls-10" d="M402.55,42.51a.47.47,0,0,0,.17,0,.4.4,0,0,0,.22-.36c-.05-4.72.1-9.94.43-10.5A2,2,0,0,1,404.6,31a5.54,5.54,0,0,1,3.57.26.39.39,0,0,0,.44-.65,6.33,6.33,0,0,0-4.18-.37,2.72,2.72,0,0,0-1.73.93c-.54.9-.56,7.46-.54,10.1l-1.85-1.45a.39.39,0,1,0-.48.62l2.48,1.94A.38.38,0,0,0,402.55,42.51Z"/><path class="cls-10" d="M398.51,30.58a.37.37,0,0,0,.3-.14.39.39,0,0,0-.05-.55,5.81,5.81,0,0,0-5.19-.53.39.39,0,0,0-.17.52.4.4,0,0,0,.52.18,5.12,5.12,0,0,1,4.35.44A.37.37,0,0,0,398.51,30.58Z"/><path class="cls-10" d="M386.75,35a.38.38,0,0,0,.37-.28,5.13,5.13,0,0,0,0-2.38.39.39,0,0,0-.47-.29.38.38,0,0,0-.29.46,4.34,4.34,0,0,1,0,2,.4.4,0,0,0,.27.48Z"/><path class="cls-10" d="M400,45.84a6.49,6.49,0,0,0,1.08-.08.39.39,0,0,0-.13-.77s-3.14.51-4.48-1.44a.39.39,0,1,0-.64.44A4.93,4.93,0,0,0,400,45.84Z"/><path class="cls-12" d="M415.25,85.52h.11a.4.4,0,0,0,.26-.49l-3.4-11.87a.39.39,0,1,0-.75.22l3.41,11.87A.38.38,0,0,0,415.25,85.52Z"/><path class="cls-12" d="M371.85,94.86a.37.37,0,0,0,.3-.14.4.4,0,0,0-.06-.55c-2.65-2.19-3-12.68-.58-17.53a.38.38,0,1,0-.69-.34c-2.65,5.3-2.2,16,.78,18.47A.38.38,0,0,0,371.85,94.86Z"/><path class="cls-10" d="M411.83,120.36a25.38,25.38,0,0,0,5.29,5.88,19.9,19.9,0,0,0,6.48,3.86c-.16-.34-.33-.67-.49-1-4.14-1.6-8.87-6.33-10.42-8.81C412.41,120.33,412.12,120.34,411.83,120.36Z"/><path class="cls-10" d="M365,132.81c3.24-1.86,8-7.77,9.59-12.41l-.79-.07A27.67,27.67,0,0,1,365,131.87C365,132.18,365,132.49,365,132.81Z"/><path class="cls-10" d="M392,121.31l.73,7.07a.39.39,0,0,0,.39.35h0a.38.38,0,0,0,.34-.43l-.71-7Z"/><path class="cls-10" d="M397.17,33.32c-.14.59,0,1.13.4,1.22s.78-.31.92-.9,0-1.14-.4-1.22S397.31,32.73,397.17,33.32Z"/><path class="cls-10" d="M405.57,34.39c-.14.59,0,1.14.4,1.23s.78-.32.92-.9,0-1.14-.4-1.23S405.71,33.81,405.57,34.39Z"/><path class="cls-9" d="M385.42,44.08c1.86,5.65,4.06,10.36,8.84,11.44-.15-1.08-.35-2.27-.56-3.42-.18-1-.37-1.88-.57-2.7l-.32-.18c-2.86-1.67-5.33-7.42-5.32-10.86C386.87,39.78,386.1,41.93,385.42,44.08Z"/><path class="cls-15" d="M413,90.78l7.39-27.59,2-7.45a2.19,2.19,0,0,1,2-1.56h48.56a1.16,1.16,0,0,1,1.14,1.56l-9.38,35a2.19,2.19,0,0,1-2,1.55H414.13A1.15,1.15,0,0,1,413,90.78Z"/><path class="cls-4" d="M441.67,75.07c-1-1.76-.74-4.88.55-7a3.72,3.72,0,0,1,3.31-2c1.51.07,2.15,2.44,2.1,4.62-.06,2.87-1.22,5.76-3.68,5.76A2.51,2.51,0,0,1,441.67,75.07Zm3.82-8.2a3,3,0,0,0-2.61,1.64c-1.13,1.84-1.37,4.67-.53,6.18a1.75,1.75,0,0,0,1.6,1c1.92,0,2.85-2.59,2.91-5C446.9,68.62,446.29,66.9,445.49,66.87Z"/><path class="cls-8" d="M362.11,95.06a25.88,25.88,0,0,1,9.74-.59c3.21,4,9.34,3.8,14.89,2.92s12-2.72,12.06-4.67,2.05-5.84,3.12-6.23.58,2.73.1,4.68.19,2.82,3.5,3.5,9.73-1.07,9.73,0-5.74,2.14-5.74,2.14,5.74-.49,4.77.78-5.84,2.43-5.84,2.43,5.84-.39,4.55.59-7.76,1.46-7.76,1.46c-9.93,5.44-29.59,13.72-37.76,12.35a12.2,12.2,0,0,1-2.06-.54c-6.73-2.34-9.84-9.87-11.08-13.86A19,19,0,0,1,362.11,95.06Z"/><path d="M331.89,258s-3.58-20.54-5.4-30.41S320.15,204,318,199.46s-9.61-4.47-13.77-2.14l1.8,8.87c.54-.48,1-.94,1.45-1.37,3.08,10.52,14.82,53.35,14.82,53.35h0l0,.08Z"/><path class="cls-10" d="M322.28,258.17l-15.83.35-15-36.19S273.08,247.57,263.1,255s-15.06,7.26-20.31,6.87-8.65-1.33-11.72-6.51-4.34-18.89-3.84-25.1c0,0,3.4.86,7.39,1.65l.67.14a73.22,73.22,0,0,0,7.41,1.1l.71,0a10.18,10.18,0,0,0,2.81-.14s7.07-5.48,16.08-12.25c1.49-1.12,3-2.28,4.61-3.45a61.13,61.13,0,0,0,13.54.51c.4,0,.8-.07,1.19-.12A35.65,35.65,0,0,0,286,217a46.94,46.94,0,0,0,12.46-5.32l.59-.36a49.58,49.58,0,0,0,6.93-5.08c.54-.48,1-.94,1.45-1.37C310.54,215.34,322.28,258.17,322.28,258.17Z"/><polygon class="cls-13" points="307.13 258.5 306.38 262.82 327.25 262.37 321.83 258.18 307.13 258.5"/><polygon class="cls-16" points="327.25 262.37 339.41 262.11 331.46 257.97 321.83 258.18 327.25 262.37"/><path class="cls-13" d="M324.16,182.46l-5.61,16.62a1.36,1.36,0,0,1-1.72.85l-6.58-2.23-1.24-.42a1.35,1.35,0,0,1-.85-1.71L313.77,179a1.36,1.36,0,0,1,1.72-.85l.9.31,6.92,2.33A1.36,1.36,0,0,1,324.16,182.46Z"/><path class="cls-17" d="M316.39,178.41c-1.25,4.05-4.36,13.76-6.14,19.29l-1.24-.42a1.35,1.35,0,0,1-.85-1.71L313.77,179a1.36,1.36,0,0,1,1.72-.85Z"/><path class="cls-8" d="M305.32,194.8c.55-2,1.8-6.63,2.65-6.39s-.23,5,.7,4.72,9.64-3.76,10.25-3-4.66,3.49-4.66,3.49,6-2.42,6.55-1.84-6.07,4.45-6.07,4.45,4.94-2.14,5.46-1.48-4.25,3-4.25,3,4.19-1.64,4.55-1-2.47,3-5.65,4.51a25.93,25.93,0,0,1-6.05,2,14.35,14.35,0,0,0-.87-5.37A8.36,8.36,0,0,0,305.32,194.8Z"/><path class="cls-10" d="M303.44,196.64a6.43,6.43,0,0,0-4.18-1c-1.21,0-5,2.28-9.95,5.63,1.61-.23,3.22-.51,4.81-.87A25,25,0,0,0,303.44,196.64Z"/><path class="cls-11" d="M246.22,233s-9.23-.82-11.86-1.44-7.13-1.36-7.13-1.36S242.27,234,246.22,233Z"/><path class="cls-12" d="M314.69,258.34H314l-15.49-46.72-2.15-6.49c-1.57,1.36-7.77,6.74-14.7,12.58s-14.4,12-18.89,15.22c-9.53,6.86-22.38,13.44-23.9,12.72a4.78,4.78,0,0,1-1.38-2.1.37.37,0,0,1-.09-.19,37.09,37.09,0,0,1-2.76-11.49l.67.14a36.29,36.29,0,0,0,2.48,10.53c1-1.7,3.64-6.55,4.93-9.43l.71,0c-1.4,3.23-4.71,9.09-5.31,10.17a4.27,4.27,0,0,0,1,1.71c1.19.4,13.2-5.44,23.21-12.65,4.32-3.11,11.46-9,18.1-14.56,8.25-6.94,15.69-13.43,15.83-13.55a.34.34,0,0,1,.31-.07.34.34,0,0,1,.23.22l2.26,6.83Z"/><path class="cls-6" d="M246.5,167.93l.14.07a4.74,4.74,0,0,0,.26.76A88.27,88.27,0,0,0,251,158.62c2.84-9.61,10.85-18,10.85-18-1.32-2.68-3.08-5.77-6.92-7.46a10.46,10.46,0,0,0-11.61,2.45c-2.72,3.1-2,5-3.88,7.1s-6.41,5.52-7.94,9a10.8,10.8,0,0,0-.6,7.38c.29,1.77.49,3.2-3.28,4.72s-10.52,9.87-12,13.62-.75,11.09,4.64,15.37a72.26,72.26,0,0,0,8.31,5.27c.89-5.69,2.22-11.23,4-15.09C236.42,174.75,241.9,170.06,246.5,167.93Z"/><path class="cls-11" d="M305.32,194.8a6.79,6.79,0,0,1-1.88,1.84,25,25,0,0,1-9.32,3.73c-1.59.36-3.2.64-4.81.87-7.78,1.1-15.63.73-21.56-1.16,0,0,1.65-1.79-.14-6.23s-13-21.95-13-21.95-.32,1.1-2.18.89S247.73,170,247,169a1.57,1.57,0,0,1-.13-.23,4.74,4.74,0,0,1-.26-.76l-.14-.07c-4.6,2.13-10.08,6.82-13.87,15.1-1.77,3.86-3.1,9.4-4,15.09a109.29,109.29,0,0,0-1.38,17.82c.19,8.62,0,14.29,0,14.29s4.5.74,7.13,1.36S246.22,233,246.22,233s7.08-5.48,16.07-12.24l.48-4.18s1.6.36,4.13.72c4.62.66,12.34,1.29,19.13-.38a50.47,50.47,0,0,0,21.43-12.13,13.34,13.34,0,0,0,1.34-1.55A8.45,8.45,0,0,0,305.32,194.8Z"/><path class="cls-8" d="M254.62,171.9s-.31,1.1-2.18.9S247.73,170,247,169a3.35,3.35,0,0,1-.39-1,25.58,25.58,0,0,1-.55-3.55c-.06-.59-.11-1.22-.16-1.88-.07-1-.14-2-.2-3.14a8.15,8.15,0,0,0,5.67,4.5,11.08,11.08,0,0,0,2.19.27l.49,3.65Z"/><path class="cls-8" d="M261.88,140.64c-1.73-2-6.84-3.74-11.42-.69s-4,5.25-5,7.38a7.85,7.85,0,0,1-2.64,3.1c0-2.36-1.25-3.18-2.5-2.4s-.83,4.67,1.36,6.32,2.86,1,2.86,1a12,12,0,0,0,1.19,4.07,8.17,8.17,0,0,0,5.67,4.49,11.88,11.88,0,0,0,2.19.27c4.9.11,7.39-3.52,8.64-7.78C263.64,151.59,263.62,142.63,261.88,140.64Z"/><path class="cls-10" d="M254.09,147.76a.33.33,0,0,1-.27-.12,5.38,5.38,0,0,0-5.7-1.34.34.34,0,0,1-.25-.64,6.06,6.06,0,0,1,6.48,1.55.35.35,0,0,1,0,.48A.31.31,0,0,1,254.09,147.76Z"/><path class="cls-10" d="M242.47,153.43a.34.34,0,0,1-.26-.12,5.8,5.8,0,0,1-1.32-2.74.33.33,0,1,1,.66-.09,5.31,5.31,0,0,0,1.16,2.38.34.34,0,0,1,0,.48A.36.36,0,0,1,242.47,153.43Z"/><path class="cls-10" d="M258.35,158.21a.3.3,0,0,1-.22-.08l-3.1-2.52a.35.35,0,0,1-.05-.48.36.36,0,0,1,.48,0l2.58,2.11.54-9.38a.32.32,0,0,1,.16-.27c.11-.06,2.51-1.42,4.41-.62a.33.33,0,0,1,.17.45.33.33,0,0,1-.44.17c-1.34-.57-3.11.23-3.64.5l-.56,9.85a.35.35,0,0,1-.2.29A.31.31,0,0,1,258.35,158.21Z"/><path class="cls-10" d="M255.61,160.63a5.05,5.05,0,0,1-2.12-.49c-.33-.15-1.3-.64-1.41-1a.34.34,0,0,1,.2-.43.35.35,0,0,1,.4.14c.27.26,2.29,1.5,3.72.91a.33.33,0,0,1,.44.18.34.34,0,0,1-.18.44A2.93,2.93,0,0,1,255.61,160.63Z"/><path class="cls-12" d="M268.32,200.6l-.11,0c-9.88-3.39-17.33-16.1-18-18.85a.34.34,0,0,1,.66-.16c.66,2.67,7.93,15.06,17.58,18.37a.34.34,0,0,1,.21.43A.36.36,0,0,1,268.32,200.6Z"/><path class="cls-12" d="M262.78,216.94h-.06c-19.64-3.08-26.25-26.41-26.57-29.82a.34.34,0,0,1,.68-.07c.3,3.18,7.07,26.26,26,29.22a.34.34,0,0,1-.05.67Z"/><path class="cls-10" d="M252.76,150.3c-.17.5-.56.81-.87.71s-.42-.6-.25-1.09.56-.82.87-.71S252.93,149.8,252.76,150.3Z"/><path class="cls-10" d="M261.67,150.81c-.17.5-.55.81-.86.71s-.42-.59-.26-1.09.56-.82.87-.71S261.84,150.31,261.67,150.81Z"/><path class="cls-18" d="M238.93,146.22a.34.34,0,0,1-.33-.23.35.35,0,0,1,.21-.43c2.48-.84,5.48-3.29,6.16-6.16.05-.23.1-.45.14-.65.62-2.82,1.14-4,7.81-4.68a.33.33,0,0,1,.37.3.33.33,0,0,1-.3.37c-6.45.67-6.68,1.69-7.22,4.15,0,.21-.09.43-.14.66-.74,3.11-3.95,5.75-6.6,6.65Z"/><path class="cls-18" d="M223.81,170.2a.32.32,0,0,1-.16,0,.34.34,0,0,1-.15-.45c1-1.89,2.86-2.88,4.7-3.84s3.51-1.83,4-3.48a15.22,15.22,0,0,0,.49-3.33,16.85,16.85,0,0,1,2.72-8.77.33.33,0,1,1,.57.35,16.29,16.29,0,0,0-2.62,8.47,15,15,0,0,1-.52,3.47c-.56,1.93-2.39,2.88-4.33,3.89-1.74.91-3.54,1.85-4.4,3.55A.35.35,0,0,1,223.81,170.2Z"/><path class="cls-18" d="M222.27,184.77a.31.31,0,0,1-.32-.21c-1.22-3.07,1.06-9.11,6.27-12.87a.34.34,0,0,1,.47.07.35.35,0,0,1-.08.48c-4.81,3.47-7.16,9.24-6,12.07a.35.35,0,0,1-.19.44A.25.25,0,0,1,222.27,184.77Z"/><path class="cls-18" d="M234.05,174.71a.31.31,0,0,1-.3-.18.34.34,0,0,1,.14-.46c3.6-1.85,6.12-8.94,5-14a.34.34,0,1,1,.66-.14c1.17,5.35-1.53,12.81-5.36,14.78A.28.28,0,0,1,234.05,174.71Z"/><path class="cls-9" d="M254.08,167.86c-2.45-.86-6-2.55-8.15-5.28-.07-1-.14-2-.2-3.14a8.15,8.15,0,0,0,5.67,4.5,11.08,11.08,0,0,0,2.19.27Z"/></svg>