<svg id="Layer_1" data-name="Layer 1" xmlns="http://www.w3.org/2000/svg" xmlns:xlink="http://www.w3.org/1999/xlink" viewBox="0 0 2000 2000"><defs><style>.cls-1{fill:url(#linear-gradient);}.cls-2{fill:url(#linear-gradient-2);}.cls-14,.cls-3{fill:none;}.cls-3{clip-rule:evenodd;}.cls-4{clip-path:url(#clip-path);}.cls-5{fill:url(#linear-gradient-3);}.cls-6{clip-path:url(#clip-path-2);}.cls-7{fill:url(#linear-gradient-4);}.cls-8{clip-path:url(#clip-path-3);}.cls-9{fill:url(#linear-gradient-5);}.cls-10{clip-path:url(#clip-path-4);}.cls-11{fill:url(#linear-gradient-6);}.cls-12{mask:url(#mask);}.cls-13,.cls-40{fill:#990038;}.cls-13,.cls-36{fill-rule:evenodd;}.cls-14{stroke:#231916;stroke-miterlimit:22.93;stroke-width:0.57px;}.cls-15{clip-path:url(#clip-path-5);}.cls-16{fill:url(#linear-gradient-7);}.cls-17{clip-path:url(#clip-path-6);}.cls-18{fill:url(#linear-gradient-8);}.cls-19{clip-path:url(#clip-path-7);}.cls-20{fill:url(#linear-gradient-9);}.cls-21{clip-path:url(#clip-path-8);}.cls-22{fill:url(#linear-gradient-10);}.cls-23{clip-path:url(#clip-path-9);}.cls-24{fill:url(#linear-gradient-11);}.cls-25{clip-path:url(#clip-path-10);}.cls-26{fill:url(#linear-gradient-12);}.cls-27{clip-path:url(#clip-path-11);}.cls-28{fill:url(#linear-gradient-13);}.cls-29{clip-path:url(#clip-path-12);}.cls-30{fill:url(#linear-gradient-14);}.cls-31{clip-path:url(#clip-path-13);}.cls-32{fill:url(#linear-gradient-15);}.cls-33{clip-path:url(#clip-path-14);}.cls-34{fill:url(#linear-gradient-16);}.cls-35{mask:url(#mask-2);}.cls-36{fill:#102770;}.cls-37{fill:url(#linear-gradient-17);}.cls-38{fill:url(#linear-gradient-18);}.cls-39{fill:url(#linear-gradient-19);}</style><linearGradient id="linear-gradient" x1="-1415.55" y1="1563.47" x2="-2107.12" y2="662.55" gradientTransform="translate(2282.22 -226.23)" gradientUnits="userSpaceOnUse"><stop offset="0" stop-color="#fff"/><stop offset="1"/></linearGradient><linearGradient id="linear-gradient-2" x1="-2063.32" y1="1526.83" x2="-870.82" y2="801.6" gradientTransform="translate(2422.35 -597.88)" xlink:href="#linear-gradient"/><clipPath id="clip-path"><path class="cls-3" d="M623.37,1451.54c289.31-67.08,444.68-209,507.75-404-88.75,12.13-128.87,32.09-167.73,39.23-72.87,178.63-220.81,299-340,364.74"/></clipPath><linearGradient id="linear-gradient-3" x1="955.01" y1="1190.92" x2="448.35" y2="1572.95" gradientUnits="userSpaceOnUse"><stop offset="0" stop-color="#00478f"/><stop offset="1" stop-color="#29c4ff"/></linearGradient><clipPath id="clip-path-2"><path class="cls-3" d="M742.35,1571.19c264-136,379.83-311.68,393.15-516.17-83,33.53-117.06,62.73-153,79.18-26.84,191-140.74,344-240.17,437"/></clipPath><linearGradient id="linear-gradient-4" x1="1035.16" y1="1184.66" x2="616.28" y2="1743.78" xlink:href="#linear-gradient-3"/><clipPath id="clip-path-3"><path class="cls-3" d="M916.92,1619.38c182.37-168.57,236.44-336,201.5-503.77-59.44,45.58-80.32,76.7-105.59,98,21.05,159.94-36.56,308.62-95.91,405.79"/></clipPath><linearGradient id="linear-gradient-5" x1="1082.88" y1="1181.48" x2="959.38" y2="1662.76" xlink:href="#linear-gradient-3"/><clipPath id="clip-path-4"><path class="cls-3" d="M271.92,587.58C372.2,120.46,994,712.91,1085,888.51c0,0,201.86,400-52.34,714,168.53-347.25-110.25-496.64-357.85-585C398.54,919,440.38,714.62,343.23,665.52c-48.05-24.27-99.09,0-126.44,49.16-7.27-43-3.39-76.17,55.13-127.1"/></clipPath><linearGradient id="linear-gradient-6" x1="688.69" y1="209.9" x2="763.45" y2="1028.58" gradientUnits="userSpaceOnUse"><stop offset="0" stop-color="#ffce4b"/><stop offset="1" stop-color="#d3226f"/></linearGradient><mask id="mask" x="216.79" y="585" width="888.68" height="968.96" maskUnits="userSpaceOnUse"><rect class="cls-1" x="216.79" y="585" width="888.68" height="968.96"/></mask><clipPath id="clip-path-5"><path class="cls-3" d="M804.1,1058.28c59.95-148,45.55-260.31-20.75-348.35-22.1,42.8-39.28,79.3-48.15,98.61,39.64,101.59,66.62,204.46,68.9,249.74"/></clipPath><linearGradient id="linear-gradient-7" x1="795.72" y1="847.68" x2="827.59" y2="1145.24" gradientUnits="userSpaceOnUse"><stop offset="0" stop-color="#00478f"/><stop offset="1" stop-color="#51f4e9"/></linearGradient><clipPath id="clip-path-6"><path class="cls-3" d="M918.14,1080.45c60.94-216.1,23.52-370.72-82.68-483.53-24.28,63.21-42.66,116.86-52.09,145.21C854.42,878,908,1017.54,918.14,1080.45"/></clipPath><linearGradient id="linear-gradient-8" x1="870.88" y1="764.88" x2="937.51" y2="1240.02" xlink:href="#linear-gradient-3"/><clipPath id="clip-path-7"><path class="cls-3" d="M1083.07,1075c32.37-246.22-33.16-409.53-167.32-516.13-16.54,73-35,121.63-40.84,154.15,99.35,137.4,187,294.72,208.16,362"/></clipPath><linearGradient id="linear-gradient-9" x1="884.45" y1="596.48" x2="1122.86" y2="1071.07" gradientUnits="userSpaceOnUse"><stop offset="0" stop-color="#003780"/><stop offset="1" stop-color="#b222d3"/></linearGradient><clipPath id="clip-path-8"><path class="cls-3" d="M1211.87,1067.48C1256.3,787.4,1157.73,622,969.67,526c-14.52,26.75-28.06,52.69-40.27,76.71,132.18,154.83,258,378.91,282.47,464.79"/></clipPath><linearGradient id="linear-gradient-10" x1="1103.57" y1="803.89" x2="1404.22" y2="1004.64" gradientUnits="userSpaceOnUse"><stop offset="0" stop-color="#4e046d"/><stop offset="1" stop-color="#ff8bc7"/></linearGradient><clipPath id="clip-path-9"><path class="cls-3" d="M1460.13,980.15c-53.72-322.52-231.31-452.77-483.7-471.78-10.84,19.61-21.16,38.89-30.83,57.39,202,101.61,453.71,325.52,514.53,414.39"/></clipPath><linearGradient id="linear-gradient-11" x1="975.65" y1="540.31" x2="1585.61" y2="1087.83" xlink:href="#linear-gradient-10"/><clipPath id="clip-path-10"><path class="cls-3" d="M1680.52,825.1c-164.76-330.78-396.81-423.31-672.09-372.82C991.86,480.35,976,508.72,961.37,536c262.69,46,620.41,210.28,719.15,289.09"/></clipPath><linearGradient id="linear-gradient-12" x1="1256.67" y1="580.71" x2="1715.18" y2="814.26" gradientUnits="userSpaceOnUse"><stop offset="0" stop-color="#b91c58"/><stop offset="1" stop-color="#f95c97"/></linearGradient><clipPath id="clip-path-11"><path class="cls-3" d="M1784.05,637.24c-216-303.22-461.59-357-727.84-261.31-18.74,28-37.1,57.91-54.56,87.94,267.36-2.8,668.81,108.79,782.4,173.37"/></clipPath><linearGradient id="linear-gradient-13" x1="1136.26" y1="410.87" x2="1887.65" y2="551.05" gradientUnits="userSpaceOnUse"><stop offset="0" stop-color="#b91c58"/><stop offset="1" stop-color="#ff8bc7"/></linearGradient><clipPath id="clip-path-12"><path class="cls-3" d="M1740.2,424.21C1521.83,202.51,1312,192.45,1105,308.87c-19.65,24.43-39.4,52.42-58.66,82.09,215.4-47.11,587.53-6.53,693.89,33.25"/></clipPath><linearGradient id="linear-gradient-14" x1="1703.21" y1="362.65" x2="1188.09" y2="272.38" xlink:href="#linear-gradient-6"/><clipPath id="clip-path-13"><path class="cls-3" d="M900.68,669.81C1044,426.61,1208.81,111.47,1643.88,68c-443.63-61.39-704,257.76-898.2,481.83C606.87,710,501.91,821.57,388.07,710.8c37.76,63,56.28,167,169.09,247.12,157.52,11,245.47-121.69,343.52-288.11"/></clipPath><linearGradient id="linear-gradient-15" x1="805.11" y1="1025.53" x2="1121" y2="219.93" gradientUnits="userSpaceOnUse"><stop offset="0" stop-color="#00478f"/><stop offset="1" stop-color="#c11fda"/></linearGradient><clipPath id="clip-path-14"><path class="cls-3" d="M1785.93,239.92c-231.77-164.48-434.3-87.24-434.3-87.24-111.4,58.53-196.35,140.46-266.41,229.84,99.23-125.07,578.85-165,700.71-142.6"/></clipPath><linearGradient id="linear-gradient-16" x1="1713.1" y1="256.38" x2="993.97" y2="185.37" xlink:href="#linear-gradient-6"/><mask id="mask-2" x="441.28" y="67.91" width="1202.6" height="890.65" maskUnits="userSpaceOnUse"><rect class="cls-2" x="441.28" y="67.91" width="1202.6" height="890.65"/></mask><linearGradient id="linear-gradient-17" x1="374.71" y1="1823.88" x2="541.69" y2="1823.88" xlink:href="#linear-gradient-6"/><linearGradient id="linear-gradient-18" x1="577.57" y1="1823.88" x2="764.13" y2="1823.88" xlink:href="#linear-gradient-6"/><linearGradient id="linear-gradient-19" x1="798.67" y1="1826.72" x2="975.51" y2="1826.72" xlink:href="#linear-gradient-6"/></defs><g class="cls-4"><rect class="cls-5" x="623.37" y="1047.57" width="507.75" height="403.98"/></g><g class="cls-6"><rect class="cls-7" x="742.35" y="1055.02" width="393.16" height="516.17"/></g><g class="cls-8"><rect class="cls-9" x="916.92" y="1115.61" width="236.44" height="503.77"/></g><g class="cls-10"><rect class="cls-11" x="209.52" y="120.46" width="1077.34" height="1482.05"/></g><g class="cls-12"><path class="cls-13" d="M1053.84,1554c120.68-312.86-143.3-452.31-379-536.4C398.54,919,440.38,714.62,343.23,665.52c-48.05-24.27-99.09,0-126.44,49.16,0,0,98.26-317.79,500,41.57,0,0,557.7,249.8,337.1,797.7"/></g><path class="cls-14" d="M388.07,710.8C661.16,976.51,883.11-37.3,1643.88,68c-732.79,73.27-699,917.12-1086.72,890"/><g class="cls-15"><rect class="cls-16" x="735.2" y="709.93" width="128.85" height="348.35"/></g><g class="cls-17"><rect class="cls-18" x="783.37" y="596.92" width="195.71" height="483.53"/></g><g class="cls-19"><rect class="cls-20" x="874.91" y="558.83" width="240.53" height="516.13"/></g><g class="cls-21"><rect class="cls-22" x="929.4" y="525.98" width="326.9" height="541.5"/></g><g class="cls-23"><rect class="cls-24" x="945.6" y="508.37" width="514.53" height="471.78"/></g><g class="cls-25"><rect class="cls-26" x="961.37" y="401.79" width="719.16" height="423.31"/></g><g class="cls-27"><rect class="cls-28" x="1001.65" y="280.24" width="782.41" height="357"/></g><g class="cls-29"><rect class="cls-30" x="1046.31" y="192.45" width="693.89" height="231.76"/></g><g class="cls-31"><rect class="cls-32" x="388.07" y="6.58" width="1255.81" height="962.38"/></g><g class="cls-33"><rect class="cls-34" x="1085.22" y="75.44" width="700.7" height="307.08"/></g><g class="cls-35"><path class="cls-36" d="M835.46,596.92c-248.59,382.94-394.18,225-394.18,225,23.66,45.7,56.87,94.13,115.88,136,157.52,11,245.47-121.69,343.52-288.11C1044,426.61,1208.81,111.47,1643.88,68c-506.47-6-808.42,528.95-808.42,528.95"/></g><path class="cls-37" d="M536.31,1752.72H419.71v46.79h107v38.27h-107v56.66h122v39.61h-167V1713.7h161.6Z"/><path class="cls-38" d="M706.68,1718.48a72.9,72.9,0,0,1,37.56,28,97.91,97.91,0,0,1,15.7,35.58,170.18,170.18,0,0,1,4.19,36.47q0,44-17.65,74.45-23.94,41.11-73.91,41.11h-95V1713.7h95Q693.08,1714,706.68,1718.48ZM622.27,1752v143.81h42.52q32.64,0,45.52-32.14,7-17.64,7-42,0-33.63-10.55-51.65t-42-18Z"/><path class="cls-39" d="M798.67,1713.7h46.79V1849q0,22.71,5.36,33.16,8.34,18.52,36.34,18.52t36.2-18.52q5.35-10.45,5.36-33.16V1713.7h46.79v135.44q0,35.13-10.89,54.71-20.29,35.88-77.46,35.88t-77.6-35.88q-10.89-19.57-10.89-54.71Z"/><path class="cls-40" d="M1010.83,1934.05V1719.44l4.29.3,142.36,205.74V1719.74h4.59v214.31h-4.9l-141.44-204.51v204.51Z"/><path class="cls-40" d="M1195.75,1929.46h113.89v4.59H1190.85v-214H1309v4.59H1195.75v99.81h110.83v4.9H1195.75Z"/><path class="cls-40" d="M1465.78,1764.75a47.93,47.93,0,0,0-11.64-23.27c-13.16-14.08-34.28-19.9-53.57-19.59-20.21.3-43.17,7.65-56,24.49-7.65,9.49-10.41,20.82-9.49,32.76,5.51,75,125.83,16.22,140.53,84.8,9.79,45.31-33.37,72.25-74.09,72.25-31.23,0-69.2-17.75-72.87-52.35l-.31-2.14,4.9-.61.31,2.14c3.37,32.15,39.19,48.37,68.27,48.37,37.35,0,77.77-24.19,68.89-66.74-13.78-63.68-134.71-5.51-140.22-85.42a50.33,50.33,0,0,1,10.1-35.82c31.23-40.41,119.4-35.21,129.81,20.21l.31,2.45-4.6.92Z"/><path class="cls-40" d="M1546.61,1935V1724.64h-74.09v-4.9h152.77v4.9H1551.2V1935Z"/></svg>