<svg id="Layer_1" data-name="Layer 1" xmlns="http://www.w3.org/2000/svg" xmlns:xlink="http://www.w3.org/1999/xlink" viewBox="0 0 2000 1067"><defs><style>.cls-1{fill:url(#linear-gradient);}.cls-2{fill:url(#linear-gradient-2);}.cls-14,.cls-3{fill:none;}.cls-3{clip-rule:evenodd;}.cls-4{clip-path:url(#clip-path);}.cls-5{fill:url(#linear-gradient-3);}.cls-6{clip-path:url(#clip-path-2);}.cls-7{fill:url(#linear-gradient-4);}.cls-8{clip-path:url(#clip-path-3);}.cls-9{fill:url(#linear-gradient-5);}.cls-10{clip-path:url(#clip-path-4);}.cls-11{fill:url(#linear-gradient-6);}.cls-12{mask:url(#mask);}.cls-13,.cls-40{fill:#990038;}.cls-13,.cls-36{fill-rule:evenodd;}.cls-14{stroke:#231916;stroke-miterlimit:22.93;stroke-width:0.57px;}.cls-15{clip-path:url(#clip-path-5);}.cls-16{fill:url(#linear-gradient-7);}.cls-17{clip-path:url(#clip-path-6);}.cls-18{fill:url(#linear-gradient-8);}.cls-19{clip-path:url(#clip-path-7);}.cls-20{fill:url(#linear-gradient-9);}.cls-21{clip-path:url(#clip-path-8);}.cls-22{fill:url(#linear-gradient-10);}.cls-23{clip-path:url(#clip-path-9);}.cls-24{fill:url(#linear-gradient-11);}.cls-25{clip-path:url(#clip-path-10);}.cls-26{fill:url(#linear-gradient-12);}.cls-27{clip-path:url(#clip-path-11);}.cls-28{fill:url(#linear-gradient-13);}.cls-29{clip-path:url(#clip-path-12);}.cls-30{fill:url(#linear-gradient-14);}.cls-31{clip-path:url(#clip-path-13);}.cls-32{fill:url(#linear-gradient-15);}.cls-33{clip-path:url(#clip-path-14);}.cls-34{fill:url(#linear-gradient-16);}.cls-35{mask:url(#mask-2);}.cls-36{fill:#102770;}.cls-37{fill:url(#linear-gradient-17);}.cls-38{fill:url(#linear-gradient-18);}.cls-39{fill:url(#linear-gradient-19);}</style><linearGradient id="linear-gradient" x1="-1909.17" y1="1012" x2="-2259.92" y2="555.09" gradientTransform="translate(2282.22 -226.23)" gradientUnits="userSpaceOnUse"><stop offset="0" stop-color="#fff"/><stop offset="1"/></linearGradient><linearGradient id="linear-gradient-2" x1="-2306.76" y1="1176.58" x2="-1701.96" y2="808.77" gradientTransform="translate(2422.35 -597.88)" xlink:href="#linear-gradient"/><clipPath id="clip-path"><path class="cls-3" d="M249.65,843.74c146.73-34,225.53-106,257.52-204.88-45,6.16-65.36,16.28-85.07,19.9-37,90.59-112,151.62-172.45,185"/></clipPath><linearGradient id="linear-gradient-3" x1="417.85" y1="711.56" x2="160.89" y2="905.32" gradientUnits="userSpaceOnUse"><stop offset="0" stop-color="#00478f"/><stop offset="1" stop-color="#29c4ff"/></linearGradient><clipPath id="clip-path-2"><path class="cls-3" d="M310,904.43c133.9-69,192.63-158.08,199.39-261.79-42.12,17-59.37,31.81-77.59,40.16C418.19,779.69,360.43,857.25,310,904.43"/></clipPath><linearGradient id="linear-gradient-4" x1="458.5" y1="708.39" x2="246.06" y2="991.96" xlink:href="#linear-gradient-3"/><clipPath id="clip-path-3"><path class="cls-3" d="M398.54,928.87c92.48-85.5,119.91-170.42,102.19-255.5-30.15,23.11-40.74,38.9-53.56,49.69,10.68,81.12-18.54,156.52-48.63,205.81"/></clipPath><linearGradient id="linear-gradient-5" x1="482.7" y1="706.78" x2="420.07" y2="950.87" xlink:href="#linear-gradient-3"/><clipPath id="clip-path-4"><path class="cls-3" d="M71.41,405.57c50.86-236.91,366.19,63.56,412.37,152.62,0,0,102.38,202.86-26.55,362.12,85.47-176.12-55.91-251.88-181.48-296.67C135.63,573.66,156.85,470,107.58,445.1c-24.37-12.31-50.26,0-64.13,24.93-3.68-21.8-1.72-38.63,28-64.46"/></clipPath><linearGradient id="linear-gradient-6" x1="282.78" y1="214.02" x2="320.7" y2="629.23" gradientUnits="userSpaceOnUse"><stop offset="0" stop-color="#ffce4b"/><stop offset="1" stop-color="#d3226f"/></linearGradient><mask id="mask" x="43.45" y="404.26" width="450.71" height="491.42" maskUnits="userSpaceOnUse"><rect class="cls-1" x="43.45" y="404.26" width="450.71" height="491.42"/></mask><clipPath id="clip-path-5"><path class="cls-3" d="M341.32,644.29c30.4-75.08,23.09-132-10.53-176.67-11.21,21.71-19.92,40.22-24.42,50,20.1,51.53,33.79,103.7,34.95,126.66"/></clipPath><linearGradient id="linear-gradient-7" x1="337.07" y1="537.48" x2="353.23" y2="688.4" gradientUnits="userSpaceOnUse"><stop offset="0" stop-color="#00478f"/><stop offset="1" stop-color="#51f4e9"/></linearGradient><clipPath id="clip-path-6"><path class="cls-3" d="M399.15,655.54c30.91-109.6,11.93-188-41.93-245.23C344.9,442.37,335.58,469.57,330.8,484c36,68.89,63.2,139.68,68.35,171.59"/></clipPath><linearGradient id="linear-gradient-8" x1="375.18" y1="495.49" x2="408.97" y2="736.47" xlink:href="#linear-gradient-3"/><clipPath id="clip-path-7"><path class="cls-3" d="M482.8,652.75C499.22,527.88,466,445.05,397.94,391c-8.39,37.05-17.76,61.68-20.71,78.18,50.38,69.68,94.86,149.47,105.57,183.58"/></clipPath><linearGradient id="linear-gradient-9" x1="382.07" y1="410.08" x2="502.98" y2="650.78" gradientUnits="userSpaceOnUse"><stop offset="0" stop-color="#003780"/><stop offset="1" stop-color="#b222d3"/></linearGradient><clipPath id="clip-path-8"><path class="cls-3" d="M548.12,649c22.54-142-27.45-225.91-122.84-274.63-7.36,13.57-14.23,26.72-20.42,38.9C471.9,491.76,535.71,605.4,548.12,649"/></clipPath><linearGradient id="linear-gradient-10" x1="493.2" y1="515.28" x2="645.68" y2="617.09" gradientUnits="userSpaceOnUse"><stop offset="0" stop-color="#4e046d"/><stop offset="1" stop-color="#ff8bc7"/></linearGradient><clipPath id="clip-path-9"><path class="cls-3" d="M674,604.67C646.79,441.1,556.72,375,428.71,365.4c-5.49,9.94-10.73,19.72-15.63,29.1C515.54,446,643.19,559.59,674,604.67"/></clipPath><linearGradient id="linear-gradient-11" x1="428.32" y1="381.59" x2="737.67" y2="659.28" xlink:href="#linear-gradient-10"/><clipPath id="clip-path-10"><path class="cls-3" d="M785.81,526C702.24,358.27,584.56,311.34,444.94,337c-8.4,14.24-16.43,28.63-23.86,42.47C554.3,402.75,735.73,486.06,785.81,526"/></clipPath><linearGradient id="linear-gradient-12" x1="570.84" y1="402.08" x2="803.38" y2="520.54" gradientUnits="userSpaceOnUse"><stop offset="0" stop-color="#b91c58"/><stop offset="1" stop-color="#f95c97"/></linearGradient><clipPath id="clip-path-11"><path class="cls-3" d="M838.32,430.75C728.79,277,604.21,249.69,469.18,298.23c-9.51,14.22-18.82,29.37-27.68,44.6,135.6-1.42,339.2,55.17,396.82,87.92"/></clipPath><linearGradient id="linear-gradient-13" x1="509.78" y1="315.95" x2="890.86" y2="387.04" gradientUnits="userSpaceOnUse"><stop offset="0" stop-color="#b91c58"/><stop offset="1" stop-color="#ff8bc7"/></linearGradient><clipPath id="clip-path-12"><path class="cls-3" d="M816.07,322.71C705.32,210.27,598.92,205.17,493.91,264.22a510.44,510.44,0,0,0-29.76,41.63c109.25-23.89,298-3.31,351.92,16.86"/></clipPath><linearGradient id="linear-gradient-14" x1="797.32" y1="291.49" x2="536.06" y2="245.71" xlink:href="#linear-gradient-6"/><clipPath id="clip-path-13"><path class="cls-3" d="M390.3,447.27C463,323.93,546.57,164.1,767.22,142c-225-31.13-357.06,130.73-455.53,244.37-70.4,81.24-123.63,137.83-181.37,81.65,19.15,32,28.54,84.7,85.75,125.33C296,599,340.57,531.67,390.3,447.27"/></clipPath><linearGradient id="linear-gradient-15" x1="341.83" y1="627.68" x2="502.03" y2="219.11" gradientUnits="userSpaceOnUse"><stop offset="0" stop-color="#00478f"/><stop offset="1" stop-color="#c11fda"/></linearGradient><clipPath id="clip-path-14"><path class="cls-3" d="M839.27,229.25C721.72,145.83,619,185,619,185c-56.49,29.69-99.58,71.24-135.11,116.57,50.32-63.43,293.57-83.71,355.38-72.32"/></clipPath><linearGradient id="linear-gradient-16" x1="802.33" y1="237.6" x2="437.61" y2="201.58" xlink:href="#linear-gradient-6"/><mask id="mask-2" x="157.3" y="142.01" width="609.92" height="451.71" maskUnits="userSpaceOnUse"><rect class="cls-2" x="157.3" y="142.01" width="609.92" height="451.71"/></mask><linearGradient id="linear-gradient-17" x1="874" y1="531.04" x2="1018.64" y2="531.04" xlink:href="#linear-gradient-6"/><linearGradient id="linear-gradient-18" x1="1049.72" y1="531.04" x2="1211.33" y2="531.04" xlink:href="#linear-gradient-6"/><linearGradient id="linear-gradient-19" x1="1241.24" y1="533.5" x2="1394.43" y2="533.5" xlink:href="#linear-gradient-6"/></defs><g class="cls-4"><rect class="cls-5" x="249.65" y="638.86" width="257.51" height="204.88"/></g><g class="cls-6"><rect class="cls-7" x="310" y="642.64" width="199.4" height="261.79"/></g><g class="cls-8"><rect class="cls-9" x="398.54" y="673.37" width="119.91" height="255.5"/></g><g class="cls-10"><rect class="cls-11" x="39.77" y="168.66" width="546.39" height="751.65"/></g><g class="cls-12"><path class="cls-13" d="M468,895.68c61.2-158.67-72.68-229.4-192.23-272C135.63,573.66,156.85,470,107.58,445.1c-24.37-12.31-50.26,0-64.13,24.93,0,0,49.84-161.17,253.56,21.08,0,0,282.84,126.69,171,404.57"/></g><path class="cls-14" d="M130.32,468.06c138.5,134.76,251.07-379.41,636.9-326C395.58,179.2,412.72,607.18,216.07,593.39"/><g class="cls-15"><rect class="cls-16" x="306.37" y="467.62" width="65.35" height="176.67"/></g><g class="cls-17"><rect class="cls-18" x="330.8" y="410.31" width="99.26" height="245.23"/></g><g class="cls-19"><rect class="cls-20" x="377.23" y="390.99" width="121.99" height="261.76"/></g><g class="cls-21"><rect class="cls-22" x="404.86" y="374.33" width="165.79" height="274.63"/></g><g class="cls-23"><rect class="cls-24" x="413.08" y="365.4" width="260.95" height="239.27"/></g><g class="cls-25"><rect class="cls-26" x="421.08" y="311.34" width="364.73" height="214.69"/></g><g class="cls-27"><rect class="cls-28" x="441.5" y="249.69" width="396.81" height="181.06"/></g><g class="cls-29"><rect class="cls-30" x="464.15" y="205.17" width="351.92" height="117.54"/></g><g class="cls-31"><rect class="cls-32" x="130.32" y="110.91" width="636.91" height="488.09"/></g><g class="cls-33"><rect class="cls-34" x="483.89" y="145.83" width="355.37" height="155.74"/></g><g class="cls-35"><path class="cls-36" d="M357.22,410.31C231.14,604.52,157.3,524.4,157.3,524.4c12,23.17,28.85,47.74,58.77,69C296,599,340.57,531.67,390.3,447.27,463,323.93,546.57,164.1,767.22,142c-256.86-3.07-410,268.27-410,268.27"/></g><path class="cls-37" d="M1014,469.4H913v40.53h92.71v33.15H913v49.08h105.66v34.32H874V435.6h140Z"/><path class="cls-38" d="M1161.56,439.75A63,63,0,0,1,1194.09,464a84.83,84.83,0,0,1,13.61,30.82,147.78,147.78,0,0,1,3.63,31.6q0,38.07-15.29,64.49-20.74,35.61-64,35.61h-82.3V435.6H1132Q1149.76,435.87,1161.56,439.75Zm-73.12,29V593.33h36.84q28.28,0,39.42-27.85,6.1-15.27,6.1-36.38,0-29.14-9.14-44.74t-36.38-15.61Z"/><path class="cls-39" d="M1241.24,435.6h40.53V552.83q0,19.67,4.65,28.72,7.23,16.05,31.48,16.05t31.36-16.05q4.63-9,4.64-28.72V435.6h40.53V552.92q0,30.44-9.43,47.4-17.58,31.08-67.1,31.08t-67.22-31.08q-9.43-17-9.44-47.4Z"/><path class="cls-40" d="M1425,626.48V440.57l3.71.27,123.32,178.21V440.84h4V626.48h-4.25L1429.27,449.32V626.48Z"/><path class="cls-40" d="M1585.21,622.5h98.65v4H1581V441.1h102.36v4h-98.12v86.45h96v4.25h-96Z"/><path class="cls-40" d="M1819.12,479.82A41.63,41.63,0,0,0,1809,459.66c-11.4-12.19-29.7-17.23-46.41-17-17.5.27-37.39,6.63-48.53,21.22-6.63,8.22-9,18-8.22,28.37,4.77,65,109,14.06,121.72,73.47,8.49,39.24-28.9,62.58-64.18,62.58-27.05,0-59.93-15.38-63.11-45.35l-.27-1.85,4.24-.53.27,1.85c2.92,27.85,34,41.9,59.14,41.9,32.35,0,67.36-21,59.67-57.81-11.93-55.16-116.69-4.77-121.46-74a43.61,43.61,0,0,1,8.75-31c27-35,103.43-30.5,112.44,17.5l.27,2.13-4,.79Z"/><path class="cls-40" d="M1889.13,627.27V445.08H1825v-4.24h132.34v4.24h-64.18V627.27Z"/></svg>